<svg width="24" height="18" viewBox="0 0 24 18" fill="none" xmlns="http://www.w3.org/2000/svg">
<path d="M20.3175 1.49246C18.7875 0.802462 17.1475 0.292462 15.4325 0.00246189C15.4172 -0.000470199 15.4014 0.00141934 15.3872 0.00786922C15.3731 0.0143191 15.3613 0.0250102 15.3535 0.0384619C15.1435 0.407462 14.9095 0.888462 14.7455 1.26846C12.9266 0.996699 11.0774 0.996699 9.25848 1.26846C9.07582 0.847322 8.86983 0.436686 8.64148 0.0384619C8.63374 0.0248446 8.62203 0.0139116 8.60792 0.00712201C8.5938 0.000332383 8.57795 -0.0019911 8.56248 0.000461792C6.84848 0.290462 5.20848 0.800462 3.67748 1.49146C3.66431 1.49699 3.65314 1.50641 3.64548 1.51846C0.533481 6.09346 -0.319519 10.5555 0.0994806 14.9615C0.100647 14.9723 0.103996 14.9827 0.109326 14.9921C0.114655 15.0016 0.121853 15.0099 0.130481 15.0165C1.94687 16.3389 3.97282 17.3463 6.12348 17.9965C6.13847 18.0011 6.15451 18.0011 6.16949 17.9964C6.18448 17.9918 6.19772 17.9827 6.20748 17.9705C6.66948 17.3505 7.08148 16.6955 7.43348 16.0075C7.45448 15.9675 7.43448 15.9195 7.39248 15.9035C6.74649 15.6602 6.12057 15.3666 5.52048 15.0255C5.5097 15.0193 5.50061 15.0106 5.49404 15C5.48746 14.9895 5.48361 14.9775 5.48281 14.9651C5.48202 14.9527 5.48432 14.9403 5.48949 14.929C5.49467 14.9178 5.50257 14.9079 5.51248 14.9005C5.63848 14.8075 5.76448 14.7105 5.88448 14.6135C5.89528 14.6047 5.90829 14.5992 5.92206 14.5974C5.93584 14.5957 5.94983 14.5977 5.96248 14.6035C9.88948 16.3675 14.1425 16.3675 18.0235 14.6035C18.0362 14.5974 18.0503 14.595 18.0643 14.5966C18.0782 14.5982 18.0915 14.6037 18.1025 14.6125C18.2225 14.7105 18.3475 14.8075 18.4745 14.9005C18.4845 14.9078 18.4925 14.9175 18.4979 14.9287C18.5032 14.9399 18.5057 14.9522 18.5051 14.9646C18.5045 14.977 18.5008 14.989 18.4945 14.9996C18.4881 15.0103 18.4791 15.0191 18.4685 15.0255C17.8705 15.3695 17.2485 15.6605 16.5955 15.9025C16.5855 15.9061 16.5763 15.9118 16.5687 15.9193C16.561 15.9267 16.5551 15.9357 16.5512 15.9457C16.5473 15.9556 16.5456 15.9663 16.5462 15.9769C16.5467 15.9876 16.5496 15.998 16.5545 16.0075C16.9145 16.6945 17.3265 17.3485 17.7795 17.9695C17.7889 17.9822 17.802 17.9917 17.8171 17.9967C17.8321 18.0018 17.8483 18.002 17.8635 17.9975C20.0178 17.3491 22.0471 16.3412 23.8655 15.0165C23.8744 15.0103 23.8818 15.0022 23.8873 14.9929C23.8928 14.9836 23.8963 14.9732 23.8975 14.9625C24.3975 9.86846 23.0595 5.44246 20.3485 1.52046C20.3418 1.50772 20.3308 1.49778 20.3175 1.49246ZM8.02048 12.2785C6.83848 12.2785 5.86348 11.2095 5.86348 9.89846C5.86348 8.58646 6.81948 7.51846 8.02048 7.51846C9.23048 7.51846 10.1965 8.59546 10.1775 9.89846C10.1775 11.2105 9.22148 12.2785 8.02048 12.2785ZM15.9955 12.2785C14.8125 12.2785 13.8385 11.2095 13.8385 9.89846C13.8385 8.58646 14.7935 7.51846 15.9955 7.51846C17.2055 7.51846 18.1715 8.59546 18.1525 9.89846C18.1525 11.2105 17.2065 12.2785 15.9955 12.2785Z"/>
</svg>
