<svg width="26" height="26" viewBox="0 0 26 26" fill="none" xmlns="http://www.w3.org/2000/svg">
<path d="M17.5385 2.16602H8.46018C4.51685 2.16602 2.16602 4.51685 2.16602 8.46018V17.5277C2.16602 21.4818 4.51685 23.8327 8.46018 23.8327H17.5277C21.471 23.8327 23.8218 21.4818 23.8218 17.5385V8.46018C23.8327 4.51685 21.4818 2.16602 17.5385 2.16602ZM8.26518 19.6618C8.26518 20.106 7.89685 20.4743 7.45268 20.4743C7.00852 20.4743 6.64018 20.106 6.64018 19.6618V17.4193C6.64018 16.9752 7.00852 16.6068 7.45268 16.6068C7.89685 16.6068 8.26518 16.9752 8.26518 17.4193V19.6618ZM13.8118 19.6618C13.8118 20.106 13.4435 20.4743 12.9993 20.4743C12.5552 20.4743 12.1868 20.106 12.1868 19.6618V15.166C12.1868 14.7218 12.5552 14.3535 12.9993 14.3535C13.4435 14.3535 13.8118 14.7218 13.8118 15.166V19.6618ZM19.3585 19.6618C19.3585 20.106 18.9902 20.4743 18.546 20.4743C18.1019 20.4743 17.7335 20.106 17.7335 19.6618V12.9235C17.7335 12.4793 18.1019 12.111 18.546 12.111C18.9902 12.111 19.3585 12.4793 19.3585 12.9235V19.6618ZM19.3585 9.50018C19.3585 9.94435 18.9902 10.3127 18.546 10.3127C18.1019 10.3127 17.7335 9.94435 17.7335 9.50018V8.44935C14.971 11.2877 11.5152 13.2918 7.64768 14.256C7.58268 14.2777 7.51768 14.2777 7.45268 14.2777C7.08435 14.2777 6.75935 14.0285 6.66185 13.6602C6.55352 13.2268 6.81352 12.7827 7.25768 12.6743C10.9085 11.7643 14.1585 9.84685 16.7368 7.13852H15.3827C14.9385 7.13852 14.5702 6.77018 14.5702 6.32602C14.5702 5.88185 14.9385 5.51352 15.3827 5.51352H18.5568C18.6002 5.51352 18.6327 5.53518 18.676 5.53518C18.7302 5.54602 18.7843 5.54602 18.8385 5.56768C18.8927 5.58935 18.936 5.62185 18.9902 5.65435C19.0227 5.67602 19.0552 5.68685 19.0877 5.70852C19.0985 5.71935 19.0985 5.73018 19.1093 5.73018C19.1527 5.77352 19.1852 5.81685 19.2177 5.86018C19.2502 5.90352 19.2827 5.93602 19.2935 5.97935C19.3152 6.02268 19.3152 6.06602 19.326 6.12018C19.3368 6.17435 19.3585 6.22852 19.3585 6.29352C19.3585 6.30435 19.3693 6.31518 19.3693 6.32602V9.50018H19.3585Z" fill="#121126"/>
</svg>
