<svg width="20" height="24" viewBox="0 0 20 24" fill="none" xmlns="http://www.w3.org/2000/svg">
<path d="M17.5094 5.13274C17.3536 5.04902 17.202 4.95725 17.0551 4.85776C16.6279 4.564 16.2361 4.21786 15.8884 3.82681C15.0183 2.79136 14.6933 1.74091 14.5736 1.00545H14.5784C14.4784 0.39498 14.5198 0 14.526 0H10.563V15.9382C10.563 16.1522 10.563 16.3637 10.5543 16.5727C10.5543 16.5987 10.5519 16.6227 10.5505 16.6507C10.5505 16.6622 10.5505 16.6742 10.5481 16.6862C10.5481 16.6892 10.5481 16.6922 10.5481 16.6952C10.5063 17.267 10.33 17.8194 10.0348 18.3038C9.73956 18.7882 9.3344 19.1897 8.85495 19.473C8.35526 19.7687 7.7901 19.9238 7.21521 19.923C5.36875 19.923 3.87227 18.3571 3.87227 16.4232C3.87227 14.4893 5.36875 12.9234 7.21521 12.9234C7.56473 12.923 7.9121 12.9802 8.24443 13.0928L8.24924 8.89606C7.24038 8.76052 6.21546 8.84391 5.23914 9.14096C4.26282 9.43802 3.35628 9.94229 2.57672 10.622C1.89365 11.2392 1.31938 11.9758 0.879775 12.7984C0.712483 13.0983 0.0812958 14.3038 0.00486099 16.2602C-0.0432112 17.3706 0.27743 18.5211 0.4303 18.9966V19.0066C0.526444 19.2865 0.899003 20.242 1.50615 21.0474C1.99574 21.6936 2.57417 22.2611 3.22281 22.7319V22.7219L3.23243 22.7319C5.15099 24.0878 7.27818 23.9988 7.27818 23.9988C7.64641 23.9833 8.87995 23.9988 10.2808 23.3083C11.8345 22.5429 12.719 21.4024 12.719 21.4024C13.2841 20.721 13.7334 19.9444 14.0477 19.106C14.4063 18.1256 14.526 16.9497 14.526 16.4797V8.0241C14.5741 8.0541 15.2144 8.49458 15.2144 8.49458C15.2144 8.49458 16.1369 9.10955 17.5762 9.51003C18.6088 9.79501 20 9.85501 20 9.85501V5.76321C19.5125 5.81821 18.5227 5.65822 17.5094 5.13274Z"/>
</svg>
