<svg width="26" height="26" viewBox="0 0 26 26" fill="none" xmlns="http://www.w3.org/2000/svg">
<path d="M16.1315 3.73783H9.86984C9.43651 3.73783 9.08984 3.39116 9.08984 2.95783C9.08984 2.52449 9.43651 2.16699 9.86984 2.16699H16.1315C16.5648 2.16699 16.9115 2.51366 16.9115 2.94699C16.9115 3.38033 16.5648 3.73783 16.1315 3.73783Z" fill="#121126"/>
<path d="M15.1666 21.6348V18.4498C15.1666 16.4889 16.4883 15.1673 18.4491 15.1673H21.6341C21.8833 15.1673 22.1216 15.1889 22.3491 15.2323C22.3708 14.9723 22.3924 14.7123 22.3924 14.4414C22.3924 9.25225 18.1783 5.03809 12.9999 5.03809C7.82159 5.03809 3.60742 9.25225 3.60742 14.4414C3.60742 19.6198 7.82159 23.8339 12.9999 23.8339C13.9208 23.8339 14.7983 23.6823 15.6433 23.4439C15.3399 22.9348 15.1666 22.3281 15.1666 21.6348ZM13.8124 14.0839C13.8124 14.5281 13.4441 14.8964 12.9999 14.8964C12.5558 14.8964 12.1874 14.5281 12.1874 14.0839V8.66725C12.1874 8.22309 12.5558 7.85475 12.9999 7.85475C13.4441 7.85475 13.8124 8.22309 13.8124 8.66725V14.0839Z" fill="#121126"/>
<path d="M21.6342 16.25H18.46C17.0733 16.25 16.25 17.0733 16.25 18.4492V21.6342C16.25 23.01 17.0733 23.8333 18.46 23.8333H21.6342C23.01 23.8333 23.8333 23.01 23.8333 21.6342V18.4492C23.8333 17.0733 23.01 16.25 21.6342 16.25ZM19.4133 21.7317C19.4133 22.0783 19.1317 22.36 18.7742 22.36C18.4275 22.36 18.1458 22.0783 18.1458 21.7317V18.3517C18.1458 18.005 18.4275 17.7233 18.7742 17.7233C19.1317 17.7233 19.4133 18.005 19.4133 18.3517V21.7317ZM21.9375 21.7317C21.9375 22.0783 21.6558 22.36 21.3092 22.36C20.9625 22.36 20.67 22.0783 20.67 21.7317V18.3517C20.67 18.005 20.9625 17.7233 21.3092 17.7233C21.6558 17.7233 21.9375 18.005 21.9375 18.3517V21.7317Z" fill="#121126"/>
</svg>
