<svg width="26" height="26" viewBox="0 0 26 26" fill="none" xmlns="http://www.w3.org/2000/svg">
<path d="M23.477 7.52984C22.7836 5.179 20.8228 3.21817 18.472 2.52484C16.6845 2.00484 15.4495 2.04817 14.5936 2.68734C13.5645 3.4565 13.4453 4.84317 13.4453 5.829V8.5265C13.4453 11.1915 14.6586 12.5457 17.042 12.5457H20.1511C21.1261 12.5457 22.5236 12.4265 23.2928 11.3973C23.9536 10.5523 24.0078 9.31734 23.477 7.52984Z" fill="#121126"/>
<path d="M20.4844 14.4733C20.2027 14.1483 19.791 13.9641 19.3685 13.9641H15.4902C13.5835 13.9641 12.0344 12.4149 12.0344 10.5083V6.62992C12.0344 6.20742 11.8502 5.79575 11.5252 5.51409C11.211 5.23242 10.7777 5.10242 10.366 5.15659C7.82021 5.48159 5.48021 6.87908 3.95271 8.98075C2.41438 11.0933 1.85105 13.6716 2.33855 16.2499C3.04271 19.9766 6.02188 22.9558 9.75938 23.6599C10.3552 23.7791 10.951 23.8333 11.5469 23.8333C13.5077 23.8333 15.4035 23.2266 17.0177 22.0457C19.1194 20.5183 20.5169 18.1783 20.8419 15.6324C20.896 15.2099 20.766 14.7874 20.4844 14.4733Z" fill="#121126"/>
</svg>
