<svg width="26" height="26" viewBox="0 0 26 26" fill="none" xmlns="http://www.w3.org/2000/svg">
<path d="M18.4173 24.6465H7.58398C7.13982 24.6465 6.77148 24.2782 6.77148 23.834C6.77148 23.3898 7.13982 23.0215 7.58398 23.0215H18.4173C18.8615 23.0215 19.2298 23.3898 19.2298 23.834C19.2298 24.2782 18.8615 24.6465 18.4173 24.6465Z" fill="#121126"/>
<path d="M19.4993 2.16602H6.49935C4.10518 2.16602 2.16602 4.10518 2.16602 6.49935V16.2493C2.16602 18.6435 4.10518 20.5827 6.49935 20.5827H19.4993C21.8935 20.5827 23.8327 18.6435 23.8327 16.2493V6.49935C23.8327 4.10518 21.8935 2.16602 19.4993 2.16602ZM10.8218 7.92935C11.4285 7.92935 11.916 8.41685 11.916 9.01268C11.916 9.60851 11.4285 10.096 10.8327 10.096C10.2368 10.096 9.74935 9.60851 9.74935 9.01268C9.74935 8.41685 10.226 7.92935 10.8218 7.92935ZM7.40935 7.92935C8.01602 7.92935 8.50352 8.41685 8.50352 9.01268C8.50352 9.60851 8.01602 10.096 7.42018 10.096C6.82435 10.096 6.33685 9.60851 6.33685 9.01268C6.33685 8.41685 6.80268 7.92935 7.40935 7.92935ZM18.6977 16.0977H7.32268C6.86768 16.0977 6.49935 15.7293 6.49935 15.2852C6.49935 14.841 6.85685 14.4727 7.30101 14.4727H18.7085C19.1527 14.4727 19.521 14.841 19.521 15.2852C19.521 15.7293 19.1527 16.0977 18.6977 16.0977ZM18.6977 9.82518H14.711C14.2668 9.82518 13.8985 9.45685 13.8985 9.01268C13.8985 8.56851 14.2668 8.20018 14.711 8.20018H18.6977C19.1418 8.20018 19.5102 8.56851 19.5102 9.01268C19.5102 9.45685 19.1527 9.82518 18.6977 9.82518Z" fill="#121126"/>
</svg>
