<svg width="26" height="26" viewBox="0 0 26 26" fill="none" xmlns="http://www.w3.org/2000/svg">
<path d="M13 16.2513C17.0386 16.2513 20.3125 13.0986 20.3125 9.20963C20.3125 5.32063 17.0386 2.16797 13 2.16797C8.96142 2.16797 5.6875 5.32063 5.6875 9.20963C5.6875 13.0986 8.96142 16.2513 13 16.2513Z" fill="#121126"/>
<path d="M17.1058 16.9105C17.4633 16.7263 17.875 16.9972 17.875 17.398V22.6522C17.875 23.6272 17.1925 24.1038 16.3475 23.703L13.4442 22.3272C13.195 22.2188 12.805 22.2188 12.5558 22.3272L9.6525 23.703C8.8075 24.093 8.125 23.6163 8.125 22.6413L8.14667 17.398C8.14667 16.9972 8.56917 16.7372 8.91583 16.9105C10.14 17.528 11.5267 17.8747 13 17.8747C14.4733 17.8747 15.8708 17.528 17.1058 16.9105Z" fill="#121126"/>
</svg>
