<svg width="26" height="26" viewBox="0 0 26 26" fill="none" xmlns="http://www.w3.org/2000/svg">
<path d="M20.3789 6.77167H21.8522C21.6464 6.47917 21.4297 6.20833 21.2022 5.9375L20.3789 6.77167Z" fill="#121126"/>
<path d="M20.0627 4.78867C19.7918 4.56117 19.521 4.34451 19.2285 4.13867V5.61201L20.0627 4.78867Z" fill="#121126"/>
<path d="M21.2108 5.93526L24.4067 2.73943C24.7208 2.42526 24.7208 1.90526 24.4067 1.59109C24.0925 1.27693 23.5725 1.27693 23.2583 1.59109L20.0625 4.78693C20.4742 5.14443 20.8533 5.53443 21.2108 5.93526Z" fill="#121126"/>
<path d="M19.2294 3.25C19.2294 2.80583 18.8611 2.4375 18.4169 2.4375C17.9836 2.4375 17.6369 2.78417 17.6152 3.20667C18.1786 3.4775 18.7202 3.78083 19.2294 4.13833V3.25Z" fill="#121126"/>
<path d="M23.5632 7.58398C23.5632 7.13982 23.1949 6.77148 22.7507 6.77148H21.8516C22.2091 7.28065 22.5232 7.82232 22.7832 8.38565C23.2166 8.36398 23.5632 8.01732 23.5632 7.58398Z" fill="#121126"/>
<path d="M13.8125 15.9803H14.1375C14.56 15.9803 14.8958 15.6012 14.8958 15.1353C14.8958 14.5503 14.7333 14.4637 14.365 14.3337L13.8125 14.1387V15.9803Z" fill="#121126"/>
<path d="M22.7927 8.38435C22.7818 8.38435 22.771 8.39518 22.7493 8.39518H18.416C18.3077 8.39518 18.2102 8.37352 18.1018 8.33018C17.9068 8.24352 17.7443 8.09185 17.6577 7.88602C17.6252 7.78852 17.6035 7.69102 17.6035 7.58268V3.24935C17.6035 3.23852 17.6143 3.22768 17.6143 3.20602C16.206 2.54518 14.646 2.16602 12.9993 2.16602C7.01935 2.16602 2.16602 7.01935 2.16602 12.9993C2.16602 18.9793 7.01935 23.8327 12.9993 23.8327C18.9793 23.8327 23.8327 18.9793 23.8327 12.9993C23.8327 11.3527 23.4535 9.79268 22.7927 8.38435ZM14.8952 12.8043C15.5885 13.0427 16.5202 13.5518 16.5202 15.1443C16.5202 16.4985 15.4477 17.6143 14.1368 17.6143H13.8118V17.8852C13.8118 18.3293 13.4435 18.6977 12.9993 18.6977C12.5552 18.6977 12.1868 18.3293 12.1868 17.8852V17.6143H12.1002C10.6593 17.6143 9.47852 16.401 9.47852 14.906C9.47852 14.451 9.84685 14.0827 10.291 14.0827C10.7352 14.0827 11.1035 14.451 11.1035 14.8952C11.1035 15.491 11.5477 15.9785 12.1002 15.9785H12.1868V13.5735L11.1035 13.1943C10.4102 12.956 9.47852 12.4468 9.47852 10.8543C9.47852 9.50018 10.551 8.38435 11.8618 8.38435H12.1868V8.12435C12.1868 7.68018 12.5552 7.31185 12.9993 7.31185C13.4435 7.31185 13.8118 7.68018 13.8118 8.12435V8.39518H13.8985C15.3393 8.39518 16.5202 9.60852 16.5202 11.1035C16.5202 11.5477 16.1518 11.916 15.7077 11.916C15.2635 11.916 14.8952 11.5477 14.8952 11.1035C14.8952 10.5077 14.451 10.0202 13.8985 10.0202H13.8118V12.4252L14.8952 12.8043Z" fill="#121126"/>
<path d="M11.1035 10.8665C11.1035 11.4515 11.266 11.5382 11.6343 11.6682L12.1868 11.8632V10.0215H11.8618C11.4502 10.0215 11.1035 10.4007 11.1035 10.8665Z" fill="#121126"/>
</svg>
