<svg width="26" height="26" viewBox="0 0 26 26" fill="none" xmlns="http://www.w3.org/2000/svg">
<path d="M9.74935 2.16797C6.91102 2.16797 4.60352 4.47547 4.60352 7.3138C4.60352 10.098 6.78102 12.3513 9.61935 12.4488C9.70602 12.438 9.79268 12.438 9.85768 12.4488C9.87935 12.4488 9.89018 12.4488 9.91185 12.4488C9.92268 12.4488 9.92268 12.4488 9.93352 12.4488C12.7068 12.3513 14.8843 10.098 14.8952 7.3138C14.8952 4.47547 12.5877 2.16797 9.74935 2.16797Z" fill="#121126"/>
<path d="M15.255 15.3277C12.2325 13.3127 7.30333 13.3127 4.25917 15.3277C2.88333 16.2485 2.125 17.4943 2.125 18.8268C2.125 20.1593 2.88333 21.3943 4.24833 22.3043C5.765 23.3227 7.75833 23.8318 9.75167 23.8318C11.745 23.8318 13.7383 23.3227 15.255 22.3043C16.62 21.3835 17.3783 20.1485 17.3783 18.8052C17.3675 17.4727 16.62 16.2377 15.255 15.3277Z" fill="#121126"/>
<path d="M21.6552 7.95161C21.8285 10.0533 20.3335 11.8949 18.2643 12.1441C18.2535 12.1441 18.2535 12.1441 18.2427 12.1441H18.2102C18.1452 12.1441 18.0802 12.1441 18.026 12.1658C16.9752 12.2199 16.011 11.8841 15.2852 11.2666C16.401 10.2699 17.0402 8.77495 16.9102 7.14995C16.8343 6.27245 16.531 5.47078 16.076 4.78828C16.4877 4.58245 16.9643 4.45245 17.4518 4.40911C19.5752 4.22495 21.471 5.80661 21.6552 7.95161Z" fill="#121126"/>
<path d="M23.8229 17.9742C23.7362 19.0251 23.0646 19.9351 21.9379 20.5526C20.8546 21.1484 19.4896 21.4301 18.1354 21.3976C18.9154 20.6934 19.3704 19.8159 19.4571 18.8842C19.5654 17.5409 18.9263 16.2517 17.6479 15.2226C16.9221 14.6484 16.0771 14.1934 15.1562 13.8576C17.5504 13.1642 20.5621 13.6301 22.4146 15.1251C23.4113 15.9267 23.9204 16.9342 23.8229 17.9742Z" fill="#121126"/>
</svg>
