<svg width="26" height="26" viewBox="0 0 26 26" fill="none" xmlns="http://www.w3.org/2000/svg">
<path d="M19.5 2.16699H6.5C4.70167 2.16699 3.25 3.60783 3.25 5.38449V17.2037C3.25 18.9803 4.70167 20.4212 6.5 20.4212H7.32333C8.19 20.4212 9.01333 20.757 9.62 21.3637L11.4725 23.1945C12.3175 24.0287 13.6933 24.0287 14.5383 23.1945L16.3908 21.3637C16.9975 20.757 17.8317 20.4212 18.6875 20.4212H19.5C21.2983 20.4212 22.75 18.9803 22.75 17.2037V5.38449C22.75 3.60783 21.2983 2.16699 19.5 2.16699ZM11.245 14.0945C11.6892 14.0945 12.0575 14.4628 12.0575 14.907C12.0575 15.3512 11.6892 15.7195 11.245 15.7195H8.34167C7.865 15.7195 7.42083 15.492 7.13917 15.102C6.86833 14.7337 6.80333 14.2787 6.93333 13.8453C7.3125 12.6862 8.24417 12.0578 9.0675 11.4945C9.93417 10.9095 10.4217 10.5412 10.4217 9.91283C10.4217 9.34949 9.96667 8.89449 9.40333 8.89449C8.84 8.89449 8.39583 9.36033 8.39583 9.92366C8.39583 10.3678 8.0275 10.7362 7.58333 10.7362C7.13917 10.7362 6.77083 10.3678 6.77083 9.92366C6.77083 8.47199 7.95167 7.28033 9.41417 7.28033C10.8767 7.28033 12.0575 8.46116 12.0575 9.92366C12.0575 11.4512 10.9092 12.2312 9.98833 12.8595C9.41417 13.2495 8.8725 13.6178 8.60167 14.1053H11.245V14.0945ZM18.4167 14.1703H18.1892V14.9178C18.1892 15.362 17.8208 15.7303 17.3767 15.7303C16.9325 15.7303 16.5642 15.362 16.5642 14.9178V14.1703H14.4408C14.4408 14.1703 14.4408 14.1703 14.43 14.1703C13.8992 14.1703 13.4117 13.8887 13.1408 13.4337C12.87 12.9678 12.87 12.3937 13.1408 11.9387C13.8775 10.6712 14.7333 9.23033 15.5133 7.97366C15.86 7.42116 16.5208 7.17199 17.1383 7.34533C17.7558 7.52949 18.1892 8.09283 18.1783 8.74283V12.5562H18.4167C18.8608 12.5562 19.2292 12.9245 19.2292 13.3687C19.2292 13.8128 18.8608 14.1703 18.4167 14.1703Z" fill="#121126"/>
<path d="M16.5638 12.5444V9.35938C15.9246 10.3994 15.2638 11.5152 14.668 12.5335H16.5638V12.5444Z" fill="#121126"/>
</svg>
