<svg width="26" height="26" viewBox="0 0 26 26" fill="none" xmlns="http://www.w3.org/2000/svg">
<path d="M12.9993 2.16797C7.01935 2.16797 2.16602 7.0213 2.16602 13.0013C2.16602 18.9813 7.01935 23.8346 12.9993 23.8346C18.9793 23.8346 23.8327 18.9813 23.8327 13.0013C23.8327 7.0213 18.9793 2.16797 12.9993 2.16797ZM7.42018 10.228C7.87518 9.17713 8.73101 8.36463 9.91185 7.9963V7.12963C9.91185 6.68547 10.2802 6.31713 10.7243 6.31713C11.1685 6.31713 11.5368 6.68547 11.5368 7.12963V7.7688H14.4727V7.12963C14.4727 6.68547 14.841 6.31713 15.2852 6.31713C15.7293 6.31713 16.0977 6.68547 16.0977 7.12963V7.98547C17.2785 8.3538 18.1343 9.1663 18.5893 10.2171C18.741 10.5746 18.481 10.9863 18.091 10.9863H7.91852C7.52852 10.9863 7.26852 10.5855 7.42018 10.228ZM18.9577 15.3521C18.9577 17.7355 17.3327 19.6855 14.6243 19.6855H11.3743C8.66602 19.6855 7.04102 17.7355 7.04102 15.3521V12.6113C7.04102 12.308 7.27935 12.0696 7.58268 12.0696H18.416C18.7193 12.0696 18.9577 12.308 18.9577 12.6113V15.3521Z" fill="#121126"/>
</svg>
