<svg width="22" height="22" viewBox="0 0 22 22" fill="none" xmlns="http://www.w3.org/2000/svg">
<path d="M21.9085 5.91364C22.5707 2.46075 19.5393 -0.570656 16.0864 0.0915528L6.17279 1.99283C4.01775 2.40613 2.29429 4.03738 1.74673 6.15702C0.653512 10.389 4.57823 14.2567 8.79232 13.0174C8.90869 12.9832 9.01682 13.0913 8.9826 13.2077C7.74334 17.4218 11.6111 21.3466 15.843 20.2533C17.9627 19.7058 19.5939 17.9823 20.0072 15.8273L21.9085 5.91364Z" fill="#121126"/>
<path d="M2.91972 15.6325C3.23709 15.3151 3.23709 14.8005 2.91972 14.4832C2.60235 14.1658 2.08779 14.1658 1.77042 14.4832L0.238027 16.0156C-0.0793423 16.3329 -0.0793424 16.8475 0.238027 17.1649C0.555396 17.4822 1.06995 17.4822 1.38732 17.1649L2.91972 15.6325Z" fill="#121126"/>
<path d="M6.7507 15.2494C7.06807 15.5667 7.06807 16.0813 6.7507 16.3987L5.21831 17.9311C4.90094 18.2484 4.38638 18.2484 4.06901 17.9311C3.75164 17.6137 3.75164 17.0991 4.06901 16.7818L5.60141 15.2494C5.91878 14.932 6.43333 14.932 6.7507 15.2494Z" fill="#121126"/>
<path d="M7.5169 20.2297C7.83427 19.9123 7.83427 19.3977 7.5169 19.0804C7.19953 18.763 6.68497 18.763 6.3676 19.0804L4.83521 20.6127C4.51784 20.9301 4.51784 21.4447 4.83521 21.762C5.15258 22.0794 5.66714 22.0794 5.98451 21.762L7.5169 20.2297Z" fill="#121126"/>
</svg>
