<svg width="26" height="26" viewBox="0 0 26 26" fill="none" xmlns="http://www.w3.org/2000/svg">
<path fill-rule="evenodd" clip-rule="evenodd" d="M12.381 8.04762C12.381 11.1429 11.1429 12.381 8.04762 12.381H4.33333C1.2381 12.381 0 11.1429 0 8.04762V4.33333C0 1.2381 1.2381 0 4.33333 0H8.04762C11.1429 0 12.381 1.2381 12.381 4.33333V8.04762ZM6.94048 3.71429C6.94048 3.30007 6.60469 2.96429 6.19048 2.96429C5.77626 2.96429 5.44048 3.30007 5.44048 3.71429V5.44048H3.71429C3.30007 5.44048 2.96429 5.77626 2.96429 6.19048C2.96429 6.60469 3.30007 6.94048 3.71429 6.94048H5.44048V8.66667C5.44048 9.08088 5.77626 9.41667 6.19048 9.41667C6.60469 9.41667 6.94048 9.08088 6.94048 8.66667V6.94048H8.66667C9.08088 6.94048 9.41667 6.60469 9.41667 6.19048C9.41667 5.77626 9.08088 5.44048 8.66667 5.44048H6.94048V3.71429Z" fill="#121126"/>
<path fill-rule="evenodd" clip-rule="evenodd" d="M21.6668 12.381H17.9525C14.8572 12.381 13.6191 11.1429 13.6191 8.04762V4.33333C13.6191 1.2381 14.8572 0 17.9525 0H21.6668C24.762 0 26.0001 1.2381 26.0001 4.33333V8.04762C26.0001 11.1429 24.762 12.381 21.6668 12.381ZM17.3333 5.44048C16.9191 5.44048 16.5833 5.77626 16.5833 6.19048C16.5833 6.60469 16.9191 6.94048 17.3333 6.94048H22.2857C22.6999 6.94048 23.0357 6.60469 23.0357 6.19048C23.0357 5.77626 22.6999 5.44048 22.2857 5.44048H17.3333Z" fill="#121126"/>
<path fill-rule="evenodd" clip-rule="evenodd" d="M8.04762 26.0001H4.33333C1.2381 26.0001 0 24.762 0 21.6668V17.9525C0 14.8572 1.2381 13.6191 4.33333 13.6191H8.04762C11.1429 13.6191 12.381 14.8572 12.381 17.9525V21.6668C12.381 24.762 11.1429 26.0001 8.04762 26.0001ZM3.71429 17.8214C3.30007 17.8214 2.96429 18.1572 2.96429 18.5714C2.96429 18.9856 3.30007 19.3214 3.71429 19.3214H8.66667C9.08088 19.3214 9.41667 18.9856 9.41667 18.5714C9.41667 18.1572 9.08088 17.8214 8.66667 17.8214H3.71429ZM3.71429 20.2976C3.30007 20.2976 2.96429 20.6334 2.96429 21.0476C2.96429 21.4618 3.30007 21.7976 3.71429 21.7976H8.66667C9.08088 21.7976 9.41667 21.4618 9.41667 21.0476C9.41667 20.6334 9.08088 20.2976 8.66667 20.2976H3.71429Z" fill="#121126"/>
</svg>
