<svg width="26" height="26" viewBox="0 0 26 26" fill="none" xmlns="http://www.w3.org/2000/svg">
<path d="M17.5385 2.16699H8.46018C4.51685 2.16699 2.16602 4.51783 2.16602 8.46116V17.5287C2.16602 21.4828 4.51685 23.8337 8.46018 23.8337H17.5277C21.471 23.8337 23.8218 21.4828 23.8218 17.5395V8.46116C23.8327 4.51783 21.4818 2.16699 17.5385 2.16699ZM18.286 15.5245C18.286 15.622 18.2643 15.7195 18.2318 15.817C18.156 16.0012 18.0044 16.1528 17.8202 16.2287C17.7227 16.272 17.6252 16.2828 17.5277 16.2828H15.5127C15.0902 16.2828 14.7543 15.947 14.7543 15.5245C14.7543 15.102 15.0902 14.7662 15.5127 14.7662H15.7077L13.4219 12.4803L12.3168 14.127C12.1868 14.3112 11.9918 14.4412 11.7643 14.4628C11.5368 14.4845 11.3202 14.4087 11.1577 14.2462L7.92935 11.0178C7.63685 10.7253 7.63685 10.2487 7.92935 9.94533C8.22185 9.64199 8.69852 9.65283 9.00185 9.94533L11.5802 12.5237L12.6852 10.877C12.8152 10.6928 13.0102 10.5628 13.2377 10.5412C13.476 10.5195 13.6818 10.5953 13.8443 10.7578L16.791 13.7045V13.5095C16.791 13.087 17.1269 12.7512 17.5494 12.7512C17.9719 12.7512 18.3077 13.087 18.3077 13.5095V15.5245H18.286Z" fill="#121126"/>
</svg>
